<?xml version="1.0" standalone="no"?><!DOCTYPE svg PUBLIC "-//W3C//DTD SVG 1.1//EN" "http://www.w3.org/Graphics/SVG/1.1/DTD/svg11.dtd"><svg t="1693279454645" class="icon" viewBox="0 0 1024 1024" version="1.1" xmlns="http://www.w3.org/2000/svg" p-id="1767" xmlns:xlink="http://www.w3.org/1999/xlink" width="200" height="200"><path d="M875.434667 377.365333A971.264 971.264 0 0 0 461.802667 83.093333C348.544 41.386667 223.893333 101.333333 186.666667 216.170667a966.144 966.144 0 0 0-47.04 298.56c0 99.093333 14.890667 194.709333 42.538666 284.757333 34.005333 110.848 151.701333 173.098667 261.546667 136a970.496 970.496 0 0 0 429.866667-292.736c64.341333-76.053333 65.152-188.48 1.856-265.386667" fill="#A86F8D" p-id="1768"></path><path d="M720.533333 102.08l-53.845333 14.570667a88.405333 88.405333 0 0 0-65.28 85.333333v158.293333a17.706667 17.706667 0 0 1-22.378667 17.109334 139.093333 139.093333 0 0 0-63.573333-1.984c-57.706667 11.477333-102.912 59.52-110.613333 117.845333a139.712 139.712 0 0 0 148.309333 158.336c73.813333-5.12 129.706667-69.269333 129.706667-143.253333V256.213333c0-19.84 13.290667-37.205333 32.426666-42.410666l6.826667-1.834667a41.386667 41.386667 0 0 0 30.549333-39.936V126.677333c0-16.789333-15.936-28.992-32.128-24.597333" fill="#E7A1C2" p-id="1769"></path></svg>